<svg height='100px' width='100px'  fill="#fff" xmlns="http://www.w3.org/2000/svg" xmlns:xlink="http://www.w3.org/1999/xlink" version="1.1" x="0px" y="0px" viewBox="0 0 100 100" enable-background="new 0 0 100 100" xml:space="preserve"><path d="M84.702,14.916h-4.131v4.958c0,4.1-3.335,7.437-7.436,7.437s-7.438-3.336-7.438-7.437v-4.958h-8.263v4.958  c0,4.1-3.336,7.437-7.437,7.437c-4.1,0-7.437-3.336-7.437-7.437v-4.958h-8.263v4.958c0,4.1-3.337,7.437-7.437,7.437  s-7.436-3.336-7.436-7.437v-4.958h-4.132c-5.469,0-9.917,4.447-9.917,9.916v60.253c0,5.468,4.448,9.915,9.917,9.915h69.41  c5.468,0,9.918-4.447,9.918-9.915V24.832C94.62,19.364,90.17,14.916,84.702,14.916z M88.008,85.085c0,1.821-1.482,3.305-3.306,3.305  h-69.41c-1.822,0-3.305-1.483-3.305-3.305V38.052c0-1.825,1.48-3.305,3.305-3.305h69.41c1.826,0,3.306,1.479,3.306,3.305V85.085  L88.008,85.085z"></path><path d="M26.861,24.832c2.739,0,4.958-2.22,4.958-4.958V9.958C31.819,7.22,29.599,5,26.861,5s-4.958,2.22-4.958,4.958v9.916  C21.903,22.612,24.123,24.832,26.861,24.832z"></path><path d="M49.998,24.832c2.738,0,4.956-2.22,4.956-4.958V9.958C54.954,7.22,52.736,5,49.998,5c-2.739,0-4.958,2.22-4.958,4.958v9.916  C45.041,22.612,47.259,24.832,49.998,24.832z"></path><path d="M73.134,24.832c2.738,0,4.959-2.22,4.959-4.958V9.958C78.093,7.22,75.872,5,73.134,5s-4.957,2.22-4.957,4.958v9.916  C68.177,22.612,70.396,24.832,73.134,24.832z"></path><path d="M28.133,41.708H22.6c-1.528,0-2.767,1.239-2.767,2.767v5.533c0,1.527,1.239,2.767,2.767,2.767h5.533  c1.528,0,2.767-1.239,2.767-2.767v-5.534C30.9,42.946,29.661,41.708,28.133,41.708z"></path><path d="M44.554,41.708h-5.533c-1.528,0-2.767,1.239-2.767,2.767v5.533c0,1.527,1.239,2.767,2.767,2.767h5.533  c1.528,0,2.767-1.239,2.767-2.767v-5.534C47.32,42.946,46.082,41.708,44.554,41.708z"></path><path d="M60.974,41.708h-5.531c-1.528,0-2.767,1.239-2.767,2.767v5.533c0,1.527,1.238,2.767,2.767,2.767h5.531  c1.529,0,2.768-1.239,2.768-2.767v-5.534C63.741,42.946,62.503,41.708,60.974,41.708z"></path><path d="M77.396,41.708h-5.533c-1.527,0-2.767,1.239-2.767,2.767v5.533c0,1.527,1.239,2.767,2.767,2.767h5.533  c1.528,0,2.768-1.239,2.768-2.767v-5.534C80.162,42.946,78.924,41.708,77.396,41.708z"></path><path d="M28.133,56.036H22.6c-1.528,0-2.767,1.239-2.767,2.768v5.532c0,1.527,1.239,2.767,2.767,2.767h5.533  c1.528,0,2.767-1.239,2.767-2.767v-5.532C30.9,57.274,29.661,56.036,28.133,56.036z"></path><path d="M44.554,56.036h-5.533c-1.528,0-2.767,1.239-2.767,2.768v5.532c0,1.527,1.239,2.767,2.767,2.767h5.533  c1.528,0,2.767-1.239,2.767-2.767v-5.532C47.32,57.274,46.082,56.036,44.554,56.036z"></path><path d="M60.974,56.036h-5.531c-1.528,0-2.767,1.239-2.767,2.768v5.532c0,1.527,1.238,2.767,2.767,2.767h5.531  c1.529,0,2.768-1.239,2.768-2.767v-5.532C63.741,57.274,62.503,56.036,60.974,56.036z"></path><path d="M77.396,56.036h-5.533c-1.527,0-2.767,1.239-2.767,2.768v5.532c0,1.527,1.239,2.767,2.767,2.767h5.533  c1.528,0,2.768-1.239,2.768-2.767v-5.532C80.162,57.274,78.924,56.036,77.396,56.036z"></path><path d="M28.133,70.363H22.6c-1.528,0-2.767,1.239-2.767,2.767v5.532c0,1.529,1.239,2.768,2.767,2.768h5.533  c1.528,0,2.767-1.238,2.767-2.768V73.13C30.9,71.603,29.661,70.363,28.133,70.363z"></path><path d="M44.554,70.363h-5.533c-1.528,0-2.767,1.239-2.767,2.767v5.532c0,1.529,1.239,2.768,2.767,2.768h5.533  c1.528,0,2.767-1.238,2.767-2.768V73.13C47.32,71.603,46.082,70.363,44.554,70.363z"></path><path d="M60.974,70.363h-5.531c-1.528,0-2.767,1.239-2.767,2.767v5.532c0,1.529,1.238,2.768,2.767,2.768h5.531  c1.529,0,2.768-1.238,2.768-2.768V73.13C63.741,71.603,62.503,70.363,60.974,70.363z"></path></svg>
