<svg height='100px' width='100px'  fill="#000000" xmlns="http://www.w3.org/2000/svg" xmlns:xlink="http://www.w3.org/1999/xlink" version="1.1" x="0px" y="0px" viewBox="0 0 1024 1024" style="enable-background:new 0 0 1024 1024;" xml:space="preserve"><g><g><path d="M710.7,334.7c-9.8,9.8-19.6,19.6-29.5,29.5c-23.6,23.6-47.1,47.1-70.7,70.7    c-28.4,28.4-56.7,56.7-85.1,85.1c-24.6,24.6-49.2,49.2-73.7,73.7c-11.8,11.8-23.4,24-35.5,35.5c-0.5,0.5-1,0.9-1.5,1.4    c2.7-2.1,5.4-4.2,8.1-6.3c-0.8,0.6-1.6,1-2.4,1.4c3.2-1.3,6.4-2.7,9.6-4c-0.9,0.3-1.7,0.6-2.7,0.7c3.5-0.5,7.1-1,10.6-1.4    c-0.9,0.1-1.8,0.1-2.7,0c3.5,0.5,7.1,1,10.6,1.4c-0.9-0.1-1.8-0.3-2.7-0.7c3.2,1.3,6.4,2.7,9.6,4c-0.9-0.4-1.7-0.8-2.4-1.4    c2.7,2.1,5.4,4.2,8.1,6.3c-5.3-4.6-10.1-10-15.1-14.9c-11.5-11.5-22.9-22.9-34.4-34.4c-25.9-25.9-51.7-51.7-77.6-77.6    c-6-6-11.9-11.9-17.9-17.9c-14.8-14.8-42-15.9-56.6,0c-14.7,16-15.8,40.8,0,56.6c31.6,31.6,63.2,63.2,94.9,94.9    c15.2,15.2,30.5,30.5,45.7,45.7c1.1,1.1,2.1,2.2,3.2,3.2c20.2,19.4,51.5,19.4,71.8,0.1c1.6-1.5,3.2-3.2,4.7-4.7    c29-29,58.1-58.1,87.1-87.1c42.4-42.4,84.7-84.7,127.1-127.1c25-25,50.2-49.7,74.9-74.9c0.4-0.4,0.8-0.8,1.2-1.2    c14.8-14.8,15.9-42,0-56.6C751.3,320,726.5,318.9,710.7,334.7L710.7,334.7z"></path></g></g><g><g><path d="M908,512c0,19.5-1.3,39-3.9,58.4c0.5-3.5,1-7.1,1.4-10.6c-5.1,38-15.2,75.1-30,110.4    c1.3-3.2,2.7-6.4,4-9.6c-14.7,34.9-33.9,67.7-57,97.7c2.1-2.7,4.2-5.4,6.3-8.1c-22.8,29.4-49.2,55.8-78.6,78.6    c2.7-2.1,5.4-4.2,8.1-6.3c-30,23.1-62.8,42.3-97.7,57c3.2-1.3,6.4-2.7,9.6-4c-35.3,14.8-72.5,24.9-110.4,30    c3.5-0.5,7.1-1,10.6-1.4c-38.7,5.1-78,5.1-116.7,0c3.5,0.5,7.1,1,10.6,1.4c-38-5.1-75.1-15.2-110.4-30c3.2,1.3,6.4,2.7,9.6,4    c-34.9-14.7-67.7-33.9-97.7-57c2.7,2.1,5.4,4.2,8.1,6.3c-29.4-22.8-55.8-49.2-78.6-78.6c2.1,2.7,4.2,5.4,6.3,8.1    c-23.1-30-42.3-62.8-57-97.7c1.3,3.2,2.7,6.4,4,9.6c-14.8-35.3-24.9-72.5-30-110.4c0.5,3.5,1,7.1,1.4,10.6    c-5.1-38.7-5.1-78,0-116.7c-0.5,3.5-1,7.1-1.4,10.6c5.1-38,15.2-75.1,30-110.4c-1.3,3.2-2.7,6.4-4,9.6    c14.7-34.9,33.9-67.7,57-97.7c-2.1,2.7-4.2,5.4-6.3,8.1c22.8-29.4,49.2-55.8,78.6-78.6c-2.7,2.1-5.4,4.2-8.1,6.3    c30-23.1,62.8-42.3,97.7-57c-3.2,1.3-6.4,2.7-9.6,4c35.3-14.8,72.5-24.9,110.4-30c-3.5,0.5-7.1,1-10.6,1.4    c38.7-5.1,78-5.1,116.7,0c-3.5-0.5-7.1-1-10.6-1.4c38,5.1,75.1,15.2,110.4,30c-3.2-1.3-6.4-2.7-9.6-4c34.9,14.7,67.7,33.9,97.7,57    c-2.7-2.1-5.4-4.2-8.1-6.3c29.4,22.8,55.8,49.2,78.6,78.6c-2.1-2.7-4.2-5.4-6.3-8.1c23.1,30,42.3,62.8,57,97.7    c-1.3-3.2-2.7-6.4-4-9.6c14.8,35.3,24.9,72.5,30,110.4c-0.5-3.5-1-7.1-1.4-10.6C906.7,473,908,492.5,908,512c0,20.9,18.4,41,40,40    c21.6-1,40-17.6,40-40c-0.1-49.1-7.5-98.9-22.7-145.6c-14.7-45.2-35.9-88.6-63.5-127.4c-14.5-20.4-30.3-40-47.7-58    c-17.4-18.1-36.5-34.2-56.4-49.5c-37.8-29-80.1-51.2-124.8-67.6c-45.9-16.9-95.1-25.8-143.9-27.7c-49.1-1.9-99.2,4.2-146.5,17.5    c-45.7,12.9-90.2,32.9-129.9,59.1c-39.3,25.9-75.4,57.2-105.3,93.5c-16,19.3-30.8,39.6-43.8,61.2c-13.1,21.8-23.8,44.6-33.4,68    c-18.6,45.2-28.9,93.4-32.7,142c-3.9,49.5,0.7,100,12.4,148.2c11.2,46.3,30,91.5,54.7,132.2c24.4,40.1,54.9,77.3,90,108.5    c35.4,31.4,75,58.1,118.2,77.6c23.3,10.5,47.1,19.7,71.7,26.5c25.2,7,50.8,11.4,76.8,14.4c49.4,5.7,99.5,2.7,148.2-7.1    c46.9-9.5,92.7-26.9,134.5-50.1c41-22.8,79.1-52.3,111.6-86.3c32.5-34,60.6-73.1,81.6-115.3c21.5-43.2,37.2-89.4,44.5-137.1    c3.9-25.6,6.4-51.3,6.5-77.2c0-20.9-18.4-41-40-40C926.3,473,908,489.6,908,512z"></path></g></g></svg>