<svg height='100px' width='100px'  fill="#fff" xmlns="http://www.w3.org/2000/svg" xmlns:xlink="http://www.w3.org/1999/xlink" version="1.1" x="0px" y="0px" viewBox="0 0 100 100" style="enable-background:new 0 0 100 100;" xml:space="preserve"><path d="M50,95C25.2,95,5,74.8,5,50S25.2,5,50,5s45,20.2,45,45S74.8,95,50,95z M50,16.3c-18.6,0-33.7,15.1-33.7,33.7  S31.4,83.7,50,83.7S83.7,68.6,83.7,50S68.6,16.3,50,16.3z M44.3,65.7l9-13.5c0.4-0.6,0.7-1.4,0.7-2.2V27.5c0-2.2-1.8-3.9-3.9-3.9  s-3.9,1.8-3.9,3.9v21.3l-8.3,12.5c-1.2,1.8-0.7,4.3,1.1,5.5c0.7,0.4,1.4,0.7,2.2,0.7C42.3,67.4,43.5,66.8,44.3,65.7z"></path></svg>
